<mxfile host="app.diagrams.net" modified="2021-01-09T12:50:00.862Z" agent="5.0 (Macintosh; Intel Mac OS X 10_15_6) AppleWebKit/537.36 (KHTML, like Gecko) Chrome/86.0.4240.193 Safari/537.36" etag="H3yoZw_wldKNNUnHWj2c" version="14.1.8" type="github">
  <diagram id="1uSbGK0Mtd8uH2yY164n" name="Page-1">
    <mxGraphModel dx="1426" dy="771" grid="1" gridSize="10" guides="1" tooltips="1" connect="1" arrows="1" fold="1" page="1" pageScale="1" pageWidth="827" pageHeight="1169" math="0" shadow="0">
      <root>
        <mxCell id="0" />
        <mxCell id="1" parent="0" />
        <mxCell id="rTr22B_VBJ0NFOkobvwr-1" value="" style="shape=table;html=1;whiteSpace=wrap;startSize=0;container=1;collapsible=0;childLayout=tableLayout;" vertex="1" parent="1">
          <mxGeometry x="160" y="230" width="500" height="60" as="geometry" />
        </mxCell>
        <mxCell id="rTr22B_VBJ0NFOkobvwr-2" value="" style="shape=partialRectangle;html=1;whiteSpace=wrap;collapsible=0;dropTarget=0;pointerEvents=0;fillColor=none;top=0;left=0;bottom=0;right=0;points=[[0,0.5],[1,0.5]];portConstraint=eastwest;" vertex="1" parent="rTr22B_VBJ0NFOkobvwr-1">
          <mxGeometry width="500" height="60" as="geometry" />
        </mxCell>
        <mxCell id="rTr22B_VBJ0NFOkobvwr-23" value="zlbytes&lt;br&gt;0x50" style="shape=partialRectangle;html=1;whiteSpace=wrap;connectable=0;fillColor=#ffe6cc;top=0;left=0;bottom=0;right=0;overflow=hidden;strokeColor=#d79b00;" vertex="1" parent="rTr22B_VBJ0NFOkobvwr-2">
          <mxGeometry width="71" height="60" as="geometry" />
        </mxCell>
        <mxCell id="rTr22B_VBJ0NFOkobvwr-20" value="zltail&lt;br&gt;0x3c" style="shape=partialRectangle;html=1;whiteSpace=wrap;connectable=0;fillColor=#ffe6cc;top=0;left=0;bottom=0;right=0;overflow=hidden;strokeColor=#d79b00;" vertex="1" parent="rTr22B_VBJ0NFOkobvwr-2">
          <mxGeometry x="71" width="72" height="60" as="geometry" />
        </mxCell>
        <mxCell id="rTr22B_VBJ0NFOkobvwr-17" value="zllen&lt;br&gt;0x3" style="shape=partialRectangle;html=1;whiteSpace=wrap;connectable=0;fillColor=#ffe6cc;top=0;left=0;bottom=0;right=0;overflow=hidden;strokeColor=#d79b00;" vertex="1" parent="rTr22B_VBJ0NFOkobvwr-2">
          <mxGeometry x="143" width="71" height="60" as="geometry" />
        </mxCell>
        <mxCell id="rTr22B_VBJ0NFOkobvwr-14" value="entry1" style="shape=partialRectangle;html=1;whiteSpace=wrap;connectable=0;fillColor=#dae8fc;top=0;left=0;bottom=0;right=0;overflow=hidden;strokeColor=#6c8ebf;" vertex="1" parent="rTr22B_VBJ0NFOkobvwr-2">
          <mxGeometry x="214" width="72" height="60" as="geometry" />
        </mxCell>
        <mxCell id="rTr22B_VBJ0NFOkobvwr-3" value="&lt;span&gt;entry2&lt;/span&gt;" style="shape=partialRectangle;html=1;whiteSpace=wrap;connectable=0;fillColor=#dae8fc;top=0;left=0;bottom=0;right=0;overflow=hidden;strokeColor=#6c8ebf;" vertex="1" parent="rTr22B_VBJ0NFOkobvwr-2">
          <mxGeometry x="286" width="71" height="60" as="geometry" />
        </mxCell>
        <mxCell id="rTr22B_VBJ0NFOkobvwr-4" value="&lt;span&gt;entry3&lt;/span&gt;" style="shape=partialRectangle;html=1;whiteSpace=wrap;connectable=0;fillColor=#dae8fc;top=0;left=0;bottom=0;right=0;overflow=hidden;strokeColor=#6c8ebf;" vertex="1" parent="rTr22B_VBJ0NFOkobvwr-2">
          <mxGeometry x="357" width="72" height="60" as="geometry" />
        </mxCell>
        <mxCell id="rTr22B_VBJ0NFOkobvwr-5" value="zlend&lt;br&gt;0xFF" style="shape=partialRectangle;html=1;whiteSpace=wrap;connectable=0;fillColor=#ffe6cc;top=0;left=0;bottom=0;right=0;overflow=hidden;strokeColor=#d79b00;" vertex="1" parent="rTr22B_VBJ0NFOkobvwr-2">
          <mxGeometry x="429" width="71" height="60" as="geometry" />
        </mxCell>
        <mxCell id="rTr22B_VBJ0NFOkobvwr-26" value="" style="endArrow=classic;html=1;" edge="1" parent="1">
          <mxGeometry width="50" height="50" relative="1" as="geometry">
            <mxPoint x="190" y="340" as="sourcePoint" />
            <mxPoint x="190" y="300" as="targetPoint" />
          </mxGeometry>
        </mxCell>
        <mxCell id="rTr22B_VBJ0NFOkobvwr-27" value="p" style="text;html=1;strokeColor=none;fillColor=none;align=center;verticalAlign=middle;whiteSpace=wrap;rounded=0;" vertex="1" parent="1">
          <mxGeometry x="170" y="350" width="40" height="20" as="geometry" />
        </mxCell>
        <mxCell id="rTr22B_VBJ0NFOkobvwr-29" value="" style="endArrow=classic;html=1;" edge="1" parent="1">
          <mxGeometry width="50" height="50" relative="1" as="geometry">
            <mxPoint x="550" y="340" as="sourcePoint" />
            <mxPoint x="550" y="300" as="targetPoint" />
          </mxGeometry>
        </mxCell>
        <mxCell id="rTr22B_VBJ0NFOkobvwr-30" value="p+60" style="text;html=1;strokeColor=none;fillColor=none;align=center;verticalAlign=middle;whiteSpace=wrap;rounded=0;" vertex="1" parent="1">
          <mxGeometry x="530" y="350" width="40" height="20" as="geometry" />
        </mxCell>
      </root>
    </mxGraphModel>
  </diagram>
</mxfile>
